<?xml version="1.0" standalone="no"?>
<!DOCTYPE svg PUBLIC "-//W3C//DTD SVG 20010904//EN"
 "http://www.w3.org/TR/2001/REC-SVG-20010904/DTD/svg10.dtd">
<svg version="1.0" xmlns="http://www.w3.org/2000/svg"
 width="311.000000pt" height="494.000000pt" viewBox="0 0 311.000000 494.000000"
 preserveAspectRatio="xMidYMid meet">

<g transform="translate(0.000000,494.000000) scale(0.100000,-0.100000)"
fill="#000000" stroke="none">
<path d="M315 4682 c-4 -32 -7 -705 -6 -1496 0 -1158 3 -1442 13 -1451 11 -10
621 -361 687 -395 19 -10 25 -9 32 1 5 8 9 203 10 434 0 231 4 442 7 468 l7
48 370 -214 c204 -117 420 -242 482 -278 62 -35 113 -66 113 -69 0 -7 -262
-162 -667 -395 l-313 -180 0 -427 c0 -297 3 -428 11 -428 10 0 478 268 1312
750 l437 253 -2 425 -3 424 -492 286 c-271 157 -493 290 -493 294 0 15 154
109 578 353 l412 238 0 428 c0 236 -3 429 -7 429 -5 0 -397 -225 -873 -500
l-865 -499 -6 232 c-4 128 -7 383 -8 568 l-1 336 -152 88 c-84 49 -248 144
-364 211 l-212 122 -7 -56z m370 -465 l90 -53 3 -1187 c1 -653 -1 -1187 -6
-1187 -4 0 -50 24 -102 53 l-95 54 -3 674 c-3 719 6 1699 17 1699 3 0 47 -24
96 -53z m1855 -619 l0 -123 -243 -139 c-673 -387 -1017 -592 -1017 -604 0 -8
97 -65 783 -460 l477 -275 0 -124 0 -125 -32 20 c-18 11 -359 208 -758 437
-1011 582 -915 524 -893 540 47 33 1670 975 1680 975 2 0 3 -55 3 -122z m0
-2020 l-1 -123 -247 -141 c-136 -78 -404 -233 -597 -344 -192 -111 -356 -205
-362 -207 -10 -4 -13 18 -13 90 0 162 -54 115 498 435 268 155 537 311 597
346 61 36 113 65 118 65 4 1 7 -54 7 -121z"/>
</g>
</svg>
